<svg width="129" height="40" viewBox="0 0 129 40" fill="none" xmlns="http://www.w3.org/2000/svg">
<path d="M15.3867 1.35327C18.891 1.35327 21.6864 4.04289 21.6865 7.30639C21.6865 10.57 18.8911 13.2595 15.3867 13.2595C11.8824 13.2594 9.08691 10.5699 9.08691 7.30639C9.08702 4.04295 11.8825 1.35337 15.3867 1.35327Z" stroke="#3BB273"/>
<path d="M21.3599 0.5C24.8642 0.5 27.6596 3.18962 27.6597 6.45312C27.6597 9.71671 24.8642 12.4062 21.3599 12.4062C17.8556 12.4061 15.0601 9.71665 15.0601 6.45312C15.0602 3.18968 17.8556 0.500103 21.3599 0.5Z" stroke="#3BB273"/>
<path d="M28.9863 4.34001C32.4906 4.34001 35.286 7.02963 35.2861 10.2931C35.2861 13.5567 32.4907 16.2463 28.9863 16.2463C25.482 16.2462 22.6865 13.5567 22.6865 10.2931C22.6866 7.02969 25.4821 4.34011 28.9863 4.34001Z" stroke="#3BB273"/>
<path d="M32.186 8.76657C35.6903 8.76657 38.4857 11.4562 38.4858 14.7197C38.4858 17.9833 35.6904 20.6728 32.186 20.6728C28.6818 20.6727 25.8862 17.9832 25.8862 14.7197C25.8863 11.4562 28.6818 8.76667 32.186 8.76657Z" stroke="#3BB273"/>
<path d="M33.2002 17.2468C36.7045 17.2468 39.4999 19.9364 39.5 23.1999C39.5 26.4635 36.7046 29.153 33.2002 29.153C29.6959 29.1529 26.9004 26.4634 26.9004 23.1999C26.9005 19.9364 29.696 17.2469 33.2002 17.2468Z" stroke="#3BB273"/>
<path d="M30.6934 21.6733C34.1977 21.6733 36.9931 24.3629 36.9932 27.6264C36.9932 30.89 34.1977 33.5796 30.6934 33.5796C27.1891 33.5795 24.3936 30.89 24.3936 27.6264C24.3937 24.363 27.1891 21.6734 30.6934 21.6733Z" stroke="#3BB273"/>
<path d="M23.8662 26.7932C27.3705 26.7932 30.1659 29.4828 30.166 32.7463C30.166 36.0099 27.3706 38.6995 23.8662 38.6995C20.3619 38.6994 17.5664 36.0099 17.5664 32.7463C17.5665 29.4829 20.362 26.7933 23.8662 26.7932Z" stroke="#3BB273"/>
<path d="M18.5869 27.5934C22.0912 27.5934 24.8866 30.283 24.8867 33.5465C24.8867 36.8101 22.0913 39.4996 18.5869 39.4996C15.0826 39.4995 12.2871 36.81 12.2871 33.5465C12.2872 30.2831 15.0827 27.5935 18.5869 27.5934Z" stroke="#3BB273"/>
<path d="M10.7461 23.7C14.2504 23.7 17.0458 26.3896 17.0459 29.6531C17.0459 32.9167 14.2505 35.6062 10.7461 35.6062C7.24181 35.6061 4.44629 32.9166 4.44629 29.6531C4.44639 26.3897 7.24188 23.7001 10.7461 23.7Z" stroke="#3BB273"/>
<path d="M7.75977 19.22C11.2641 19.22 14.0595 21.9096 14.0596 25.1731C14.0596 28.4367 11.2641 31.1263 7.75977 31.1263C4.25549 31.1262 1.45996 28.4367 1.45996 25.1731C1.46006 21.9097 4.25555 19.2201 7.75977 19.22Z" stroke="#3BB273"/>
<path d="M6.7998 11.5934C10.3041 11.5934 13.0995 14.283 13.0996 17.5465C13.0996 20.8101 10.3042 23.4996 6.7998 23.4996C3.29552 23.4995 0.5 20.81 0.5 17.5465C0.500103 14.2831 3.29559 11.5935 6.7998 11.5934Z" stroke="#3BB273"/>
<path d="M8.55957 6.31327C12.0639 6.31327 14.8593 9.00289 14.8594 12.2664C14.8594 15.53 12.0639 18.2195 8.55957 18.2195C5.05529 18.2194 2.25977 15.5299 2.25977 12.2664C2.25987 9.00295 5.05535 6.31337 8.55957 6.31327Z" stroke="#3BB273"/>
<path d="M65.5685 34.4161C64.0325 34.4161 62.5818 34.1494 61.2165 33.6161C59.8512 33.0827 58.7205 32.3361 57.8245 31.3761C57.3978 31.0134 57.4085 30.6401 57.8565 30.2561C58.2405 29.9147 58.6032 29.9254 58.9445 30.2881C59.6912 31.0774 60.6512 31.6961 61.8245 32.1441C62.9978 32.5921 64.2458 32.8161 65.5685 32.8161C67.4032 32.8161 68.8325 32.4427 69.8565 31.6961C70.8805 30.9494 71.3925 29.9147 71.3925 28.5921C71.3925 27.2054 70.8592 26.0961 69.7925 25.2641C68.7258 24.4321 67.0618 23.8454 64.8005 23.5041C62.6032 23.1414 60.9818 22.4481 59.9365 21.4241C58.8912 20.4001 58.3685 18.9707 58.3685 17.1361C58.3685 15.2374 58.9765 13.7654 60.1925 12.7201C61.4085 11.6534 63.0938 11.1201 65.2485 11.1201C66.3578 11.1201 67.5098 11.3334 68.7045 11.7601C69.8992 12.1867 71.0085 12.7734 72.0325 13.5201C72.4378 13.8614 72.4805 14.2347 72.1605 14.6401C71.8405 15.0667 71.4778 15.1201 71.0725 14.8001C70.1978 14.1387 69.2378 13.6267 68.1925 13.2641C67.1685 12.9014 66.1872 12.7201 65.2485 12.7201C63.5845 12.7201 62.2832 13.1147 61.3445 13.9041C60.4272 14.6721 59.9685 15.7494 59.9685 17.1361C59.9685 18.5014 60.3738 19.5787 61.1845 20.3681C62.0165 21.1361 63.3072 21.6587 65.0565 21.9361C67.7872 22.3414 69.7925 23.0881 71.0725 24.1761C72.3525 25.2427 72.9925 26.7147 72.9925 28.5921C72.9925 30.4054 72.3418 31.8347 71.0405 32.8801C69.7392 33.9041 67.9152 34.4161 65.5685 34.4161ZM76.5097 34.2561C76.2964 34.1921 76.1471 34.0641 76.0617 33.8721C75.9764 33.6587 75.9764 33.4454 76.0617 33.2321L84.0937 11.5681C84.2431 11.2267 84.4991 11.0561 84.8617 11.0561C85.2244 11.0561 85.4804 11.2267 85.6297 11.5681L93.6937 33.2321C93.7791 33.4454 93.7684 33.6587 93.6617 33.8721C93.5764 34.0641 93.4271 34.1921 93.2137 34.2561C93.0217 34.3414 92.8191 34.3307 92.6057 34.2241C92.4137 34.1387 92.2751 33.9894 92.1897 33.7761L84.8617 14.1601L80.4137 26.0321H86.4617C86.6751 26.0321 86.8564 26.1174 87.0057 26.2881C87.1551 26.4374 87.2297 26.6294 87.2297 26.8641C87.2297 27.0774 87.1551 27.2587 87.0057 27.4081C86.8564 27.5574 86.6751 27.6321 86.4617 27.6321H79.8057L77.5337 33.7761C77.4484 33.9894 77.3097 34.1387 77.1177 34.2241C76.9257 34.3307 76.7231 34.3414 76.5097 34.2561ZM98.138 34.4161C97.9247 34.4161 97.7327 34.3414 97.562 34.1921C97.4127 34.0427 97.338 33.8614 97.338 33.6481V12.4001C97.338 12.1867 97.4127 12.0054 97.562 11.8561C97.7327 11.6854 97.9247 11.6001 98.138 11.6001H109.722C109.935 11.6001 110.117 11.6854 110.266 11.8561C110.437 12.0054 110.522 12.1867 110.522 12.4001C110.522 12.6134 110.437 12.8054 110.266 12.9761C110.117 13.1254 109.935 13.2001 109.722 13.2001H98.938V21.8401C98.9593 21.8401 98.9807 21.8401 99.002 21.8401C99.0233 21.8187 99.0447 21.8081 99.066 21.8081H107.93C108.165 21.8081 108.357 21.8827 108.506 22.0321C108.677 22.1814 108.762 22.3734 108.762 22.6081C108.762 22.8214 108.677 23.0134 108.506 23.1841C108.357 23.3334 108.165 23.4081 107.93 23.4081H98.938V33.6481C98.938 33.8614 98.8633 34.0427 98.714 34.1921C98.5647 34.3414 98.3727 34.4161 98.138 34.4161ZM114.919 34.0001C114.706 34.0001 114.514 33.9254 114.343 33.7761C114.194 33.6054 114.119 33.4134 114.119 33.2001V12.4001C114.119 12.1867 114.194 12.0054 114.343 11.8561C114.514 11.6854 114.706 11.6001 114.919 11.6001H126.151C126.386 11.6001 126.578 11.6854 126.727 11.8561C126.877 12.0054 126.951 12.1867 126.951 12.4001C126.951 12.6134 126.877 12.8054 126.727 12.9761C126.578 13.1254 126.386 13.2001 126.151 13.2001H115.719V21.8081H124.391C124.605 21.8081 124.786 21.8827 124.935 22.0321C125.106 22.1814 125.191 22.3734 125.191 22.6081C125.191 22.8214 125.106 23.0134 124.935 23.1841C124.786 23.3334 124.605 23.4081 124.391 23.4081H115.719V32.4001H126.151C126.386 32.4001 126.578 32.4747 126.727 32.6241C126.877 32.7734 126.951 32.9654 126.951 33.2001C126.951 33.4134 126.877 33.6054 126.727 33.7761C126.578 33.9254 126.386 34.0001 126.151 34.0001H114.919Z" fill="#3BB273"/>
</svg>
